PathFileType	4	(X/Y/Z)	E:\3-PhD\Data\MocapData\ElaboratedData\009\pre\dynamicElaborations\RunA1\RunA1.trc
DataRate	CameraRate	NumFrames	NumMarkers	Units	OrigDataRate	DataStartFrame
200	200	4	54	mm	200	4.160000e+02
Frame#	Time	FHD			LBHD			RBHD			C7			T10			CLAV			LSHO			LUUPA			LMUPA			LDUPA			LLEP			LMEP			LRAD			LUL			LRFIN			RSHO			RUPA1			RMUPA			RDUPA			RLEP			RMEP			RRAD			RUL			RUFIN			RASI			USACR			LSACR			RSACR			LTHI1			LTHI2			LTHI3			LTHI4			LTIB1			LTIB2			LTIB3			LTIB4			LLMAL			LHEE			LMT1			LMT2			RTHI			RTHI2			RTHI3			RTHI4			RLFC			RTIB1			RTIB2			RTIB3			RTIB4			RLMAL			RHEE			RMT1			RMT2			RMT5		
		X1	Y1	Z1	X2	Y2	Z2	X3	Y3	Z3	X4	Y4	Z4	X5	Y5	Z5	X6	Y6	Z6	X7	Y7	Z7	X8	Y8	Z8	X9	Y9	Z9	X10	Y10	Z10	X11	Y11	Z11	X12	Y12	Z12	X13	Y13	Z13	X14	Y14	Z14	X15	Y15	Z15	X16	Y16	Z16	X17	Y17	Z17	X18	Y18	Z18	X19	Y19	Z19	X20	Y20	Z20	X21	Y21	Z21	X22	Y22	Z22	X23	Y23	Z23	X24	Y24	Z24	X25	Y25	Z25	X26	Y26	Z26	X27	Y27	Z27	X28	Y28	Z28	X29	Y29	Z29	X30	Y30	Z30	X31	Y31	Z31	X32	Y32	Z32	X33	Y33	Z33	X34	Y34	Z34	X35	Y35	Z35	X36	Y36	Z36	X37	Y37	Z37	X38	Y38	Z38	X39	Y39	Z39	X40	Y40	Z40	X41	Y41	Z41	X42	Y42	Z42	X43	Y43	Z43	X44	Y44	Z44	X45	Y45	Z45	X46	Y46	Z46	X47	Y47	Z47	X48	Y48	Z48	X49	Y49	Z49	X50	Y50	Z50	X51	Y51	Z51	X52	Y52	Z52	X53	Y53	Z53	X54	Y54	Z54	

500	2.495000	-469.238949	1598.455880	372.462500	-646.482626	1603.637219	280.521617	-609.724266	1587.381905	399.541625	-702.643569	1455.505894	314.319798	-848.064506	1140.949263	280.400305	-581.838525	1334.800096	302.067672	-609.507442	1397.771041	153.667886	-750.686325	1311.070047	29.085687	-744.460965	1261.326984	30.142099	-796.425563	1268.562025	-0.406100	-886.604946	1204.406104	-39.579116	-930.793596	1213.248956	17.671513	-966.876953	960.755717	-12.947077	-1020.288007	973.278554	-63.853986	-948.509930	901.982792	-46.880156	-645.209014	1409.490080	461.425872	-637.346528	1246.088125	539.780861	-594.093929	1228.554861	530.833149	-623.766395	1180.267044	553.877679	-560.614749	1052.509570	561.401600	-578.140061	1033.319234	497.130599	-350.000571	1162.841487	451.332347	-318.374238	1112.690847	485.817374	-296.861350	1211.465946	486.543224	-767.441199	936.244092	416.882882	-888.800027	1069.980804	276.036828	-899.580514	1037.886597	248.829910	-906.462014	1043.677781	307.303846	-693.422341	743.126152	114.521035	-618.268273	702.591404	123.353069	-585.895562	728.444778	146.737707	-608.552835	641.799291	126.460797	-654.616240	465.625123	194.663886	-711.607117	515.806848	145.441801	-705.514581	479.499653	166.591762	-784.420122	464.549072	197.142827	-940.106165	490.157749	179.722439	-1000.905527	558.243251	221.747762	-968.687976	341.125145	246.082455	-959.373919	338.776992	199.178272	-864.356477	705.919884	483.243951	-835.834429	648.564453	490.775428	-802.668640	641.479135	486.816025	-875.626392	575.041104	469.862222	-867.635012	461.582160	455.085613	-944.310214	265.921002	394.257677	-1047.783670	243.333914	423.101884	-1013.499321	215.662591	406.493990	-1035.790190	178.107817	367.357672	-1141.622767	137.113090	390.832196	-1222.145472	120.777449	340.162724	-1010.085184	52.609119	327.733127	-1014.200217	51.208961	367.295527	-1060.425746	36.322813	420.391740	
501	2.500000	-439.745986	1600.690647	371.588872	-616.537711	1606.574467	279.008431	-580.294753	1589.519191	398.067830	-673.065312	1457.493228	312.917679	-815.682903	1141.126453	281.899060	-551.634257	1337.789805	299.246410	-581.510031	1401.178090	151.377376	-725.470743	1318.849606	27.968943	-720.405640	1268.878017	28.471327	-772.652504	1277.760019	-1.276931	-865.269516	1216.874900	-39.802410	-908.236094	1226.591572	18.162740	-951.657934	975.377948	-14.514402	-1005.345491	989.905216	-64.583987	-935.519936	916.252310	-49.260483	-613.650111	1414.145710	458.116275	-598.840814	1252.768367	537.657084	-555.334919	1236.656158	527.941579	-582.668913	1187.699864	552.046008	-514.482029	1062.907361	559.023098	-531.710536	1042.691452	494.574457	-315.691554	1189.910674	444.083059	-279.643805	1142.636769	477.936010	-265.742518	1242.671384	477.921161	-734.376691	935.666176	417.795255	-855.730532	1069.999449	277.503812	-866.580845	1038.053830	250.123175	-873.325847	1043.395776	308.668817	-654.346454	750.931525	115.825294	-577.199899	714.302975	125.381907	-546.419349	741.913659	149.125580	-564.492966	654.022192	128.938989	-600.633949	471.669984	196.561205	-660.886860	518.235484	147.404519	-652.344327	482.198482	168.238014	-730.242016	461.483929	198.075028	-887.570755	475.210162	179.473233	-953.963035	538.236081	220.878110	-903.898717	324.663358	245.874163	-894.268346	322.757375	199.166875	-838.063124	706.027206	483.155118	-811.976483	647.628177	490.920121	-779.153113	639.127543	486.845650	-855.016104	575.629475	470.260158	-851.864740	461.963038	455.835279	-933.960803	268.280990	395.850875	-1038.081986	248.821102	424.642361	-1004.485680	219.954902	408.283338	-1027.599359	182.629195	369.548066	-1134.553373	144.141571	392.591262	-1215.419554	132.181491	342.261573	-1008.875930	52.107868	327.910567	-1012.868427	50.767648	367.472669	-1059.078457	37.398201	420.485027	
502	2.505000	-410.102536	1602.906126	370.516800	-586.470509	1609.855115	277.370702	-550.705494	1591.918039	396.461973	-643.510653	1459.667845	311.420681	-783.137698	1141.445644	283.577103	-521.456583	1341.178760	296.243984	-553.571408	1404.921371	149.096097	-699.866123	1326.889730	26.907841	-696.007050	1276.773820	26.961069	-748.453567	1287.204684	-1.955351	-843.522783	1229.586233	-39.689602	-885.151146	1239.995960	19.068533	-935.076207	990.049818	-15.627831	-989.211496	1006.420118	-64.652673	-921.114169	930.719620	-51.255095	-582.233052	1419.050269	454.606883	-560.640477	1260.060719	535.483629	-517.020844	1245.304682	524.854743	-541.792825	1195.942106	550.360245	-469.418489	1073.964774	556.868211	-486.536567	1052.594908	492.382018	-283.636289	1216.015937	437.263291	-243.580920	1171.877640	470.459167	-237.091141	1272.555445	469.771378	-700.742185	935.096592	418.511282	-822.394468	1070.124675	279.275132	-833.378851	1038.342522	251.763928	-839.828426	1043.241132	310.402370	-615.717117	758.816641	116.979753	-536.945562	725.830146	127.186572	-507.726500	755.014839	151.267606	-521.530644	666.129229	131.242864	-547.221175	477.676197	198.278240	-610.637048	520.289598	149.303590	-599.541825	484.663331	169.781134	-675.913908	458.106555	198.993876	-834.179624	459.484072	179.551123	-905.750408	516.846001	220.425395	-837.723686	308.294387	246.041203	-827.992333	306.910211	199.576939	-811.210537	706.564311	483.045754	-787.559456	647.201794	490.888740	-755.116326	637.380137	486.653514	-833.811555	576.868954	470.577379	-835.578576	463.296015	456.432957	-922.802192	271.422540	397.466809	-1027.440231	254.954496	426.268284	-994.520088	224.965371	410.156761	-1018.363184	187.785354	371.946985	-1126.319202	151.673866	394.635116	-1207.319152	144.378152	344.714067	-1007.378492	51.859944	328.171768	-1011.213736	50.568571	367.773557	-1057.297580	38.970136	420.756965	
503	2.510000	-380.339708	1605.106980	369.231323	-556.338018	1613.375109	275.625668	-520.982566	1594.520856	394.733783	-613.973249	1461.974328	309.863179	-750.447997	1141.925289	285.426505	-491.313711	1344.874242	293.113515	-525.661492	1408.902781	146.847662	-673.937615	1335.185606	25.924765	-671.297240	1284.998083	25.552583	-723.905166	1296.915353	-2.437947	-821.387571	1242.469056	-39.242946	-861.555852	1253.339581	20.379574	-917.190319	1004.617497	-16.331074	-971.931656	1022.674287	-64.132700	-905.326257	945.217969	-52.906653	-550.999168	1424.103061	450.966456	-522.832164	1267.822662	533.279329	-479.211880	1254.365060	521.617859	-501.222107	1204.832949	548.791127	-425.431740	1085.458503	554.967522	-442.629063	1062.783410	490.601055	-253.601902	1240.884161	430.898865	-209.954581	1200.068772	463.412465	-210.606304	1300.842216	462.123715	-666.582672	934.592046	418.999278	-788.813370	1070.360507	281.304633	-799.982748	1038.748014	253.710956	-805.995453	1043.228108	312.460145	-577.516527	766.680551	117.960338	-497.467511	736.986480	128.725723	-469.740869	767.547501	153.134782	-479.657209	677.891550	133.305845	-494.388674	483.525755	199.779797	-560.801141	521.842448	151.089787	-547.080755	486.796647	171.194393	-621.379964	454.407817	199.895350	-779.792062	443.138119	179.968723	-856.039061	494.283920	220.436100	-770.231412	292.264066	246.594538	-760.577497	291.468640	200.377563	-783.768028	707.540154	482.919999	-762.511501	647.305206	490.677715	-730.482308	636.275869	486.220276	-811.917944	578.764823	470.826757	-818.622465	465.578632	456.839811	-910.714008	275.337462	399.076674	-1015.746588	261.713823	427.978437	-983.489362	230.682753	412.099469	-1007.998994	193.572289	374.520430	-1116.840096	159.725183	396.979825	-1197.754626	157.345698	347.553890	-1005.489790	52.036147	328.568653	-1009.132972	50.754950	368.253881	-1054.987824	41.193663	421.268419	
